<?xml version="1.0" encoding="UTF-8"?>
<svg version="1.1" xmlns="http://www.w3.org/2000/svg" width="40" height="40">
<path d="M0 0 C13.2 0 26.4 0 40 0 C40 13.2 40 26.4 40 40 C26.8 40 13.6 40 0 40 C0 26.8 0 13.6 0 0 Z " fill="#FDFDFC" transform="translate(0,0)"/>
<path d="M0 0 C1.01900391 0.00322266 2.03800781 0.00644531 3.08789062 0.00976562 C4.10302734 -0.00634766 5.11816406 -0.02246094 6.1640625 -0.0390625 C7.62489258 -0.0400293 7.62489258 -0.0400293 9.11523438 -0.04101562 C10.45509399 -0.04548706 10.45509399 -0.04548706 11.82202148 -0.05004883 C14.15039062 0.32226562 14.15039062 0.32226562 15.94238281 1.5324707 C17.54549934 3.90766215 17.52326437 5.46837003 17.51367188 8.32226562 C17.51302734 9.29164062 17.51238281 10.26101562 17.51171875 11.25976562 C17.49560547 12.27039063 17.47949219 13.28101563 17.46289062 14.32226562 C17.46772461 15.83820312 17.46772461 15.83820312 17.47265625 17.38476562 C17.41753348 24.92155134 17.41753348 24.92155134 15.15039062 28.32226562 C12.73608398 28.67871094 12.73608398 28.67871094 9.74023438 28.65039062 C8.66837891 28.64523438 7.59652344 28.64007813 6.4921875 28.63476562 C5.36876953 28.61414063 4.24535156 28.59351562 3.08789062 28.57226562 C1.39696289 28.56453125 1.39696289 28.56453125 -0.328125 28.55664062 C-8.69583848 28.47603652 -8.69583848 28.47603652 -9.84960938 27.32226562 C-10.10262176 23.1826428 -10.03483486 19.03120566 -10.03710938 14.88476562 C-10.04935547 13.71365234 -10.06160156 12.54253906 -10.07421875 11.3359375 C-10.07615234 10.21896484 -10.07808594 9.10199219 -10.08007812 7.95117188 C-10.08418701 6.92064697 -10.0882959 5.89012207 -10.0925293 4.82836914 C-9.51716835 -1.10738975 -4.71848293 0.03439583 0 0 Z " fill="#19373E" transform="translate(16.849609375,9.677734375)"/>
<path d="M0 0 C0.99 0.66 1.98 1.32 3 2 C3.37231445 4.19897461 3.37231445 4.19897461 3.36328125 6.90234375 C3.36263672 7.87494141 3.36199219 8.84753906 3.36132812 9.84960938 C3.34521484 10.86861328 3.32910156 11.88761719 3.3125 12.9375 C3.31733398 14.46020508 3.31733398 14.46020508 3.32226562 16.01367188 C3.26704165 23.59943752 3.26704165 23.59943752 1 27 C-1.15478516 27.34057617 -1.15478516 27.34057617 -3.7890625 27.29296875 C-4.73007812 27.28330078 -5.67109375 27.27363281 -6.640625 27.26367188 C-8.11789063 27.2259668 -8.11789063 27.2259668 -9.625 27.1875 C-11.11386719 27.16719727 -11.11386719 27.16719727 -12.6328125 27.14648438 C-15.08908072 27.11105743 -17.54427285 27.06166196 -20 27 C-19.60675537 26.54399414 -19.21351074 26.08798828 -18.80834961 25.61816406 C-11.80654702 17.47817968 -5.63175187 9.15801595 0 0 Z " fill="#183842" transform="translate(31,11)"/>
<path d="M0 0 C1.65 0 3.3 0 5 0 C5 13.2 5 26.4 5 40 C-9.85 39.505 -9.85 39.505 -25 39 C-25 38.67 -25 38.34 -25 38 C-17.74 37.67 -10.48 37.34 -3 37 C-1.0678044 33.1356088 -1.77160423 28.37563211 -1.75 24.125 C-1.729375 23.11824219 -1.70875 22.11148437 -1.6875 21.07421875 C-1.68234375 20.10355469 -1.6771875 19.13289063 -1.671875 18.1328125 C-1.6625293 17.24480957 -1.65318359 16.35680664 -1.64355469 15.44189453 C-2.06635166 12.5454457 -3.08720049 11.17099588 -5 9 C-4.01 6.69 -3.02 4.38 -2 2 C-1.34 2 -0.68 2 0 2 C0 1.34 0 0.68 0 0 Z " fill="#F8F7F5" transform="translate(35,0)"/>
<path d="M0 0 C0.66 0 1.32 0 2 0 C0.59895247 5.11382348 -1.64380712 8.74451219 -4.75 12.9375 C-5.19883545 13.55069092 -5.6476709 14.16388184 -6.11010742 14.7956543 C-7.39569292 16.53903704 -8.69478439 18.27128637 -10 20 C-10.59941406 20.80179688 -11.19882812 21.60359375 -11.81640625 22.4296875 C-13.97148748 25.14182628 -15.51017482 26.82583993 -18.8125 28 C-19.534375 28 -20.25625 28 -21 28 C-22 27 -22 27 -22.375 23.6875 C-22.34708395 18.54164139 -20.29146779 14.35331378 -18.19140625 9.734375 C-17.20266996 7.46514417 -16.49985307 5.41308379 -16 3 C-14.68 3.66 -13.36 4.32 -12 5 C-13.23876645 10.69305433 -14.56276003 16.35370013 -16 22 C-9.66812283 15.33919414 -4.12822395 8.2564479 0 0 Z " fill="#E87C1B" transform="translate(29,10)"/>
<path d="M0 0 C0.66 0 1.32 0 2 0 C0.64737628 4.74130209 -1.33354354 8.32288579 -4.125 12.375 C-4.84945313 13.43460938 -5.57390625 14.49421875 -6.3203125 15.5859375 C-6.87460937 16.38257812 -7.42890625 17.17921875 -8 18 C-8.66 17.67 -9.32 17.34 -10 17 C-8.40183295 13.61092212 -6.46852262 10.521177 -4.4375 7.375 C-2.08171635 3.76549898 -2.08171635 3.76549898 0 0 Z " fill="#B96C22" transform="translate(29,10)"/>
</svg>
