<?xml version="1.0" encoding="UTF-8"?>
<svg version="1.1" xmlns="http://www.w3.org/2000/svg" width="256" height="138">
<path d="M0 0 C11 0 22 0 33 0 C33 10.56 33 21.12 33 32 C27.72 32 22.44 32 17 32 C16.01 32.66 15.02 33.32 14 34 C14 34.99 14 35.98 14 37 C14.99 37 15.98 37 17 37 C17 45.91 17 54.82 17 64 C12.05 64.33 7.1 64.66 2 65 C1.01 68.96 0.02 72.92 -1 77 C-0.34 77 0.32 77 1 77 C1 77.99 1 78.98 1 80 C37.96 80 74.92 80 113 80 C113 78.68 113 77.36 113 76 C117.95 76 122.9 76 128 76 C129.23446117 78.46892235 129.12693347 80.10019897 129.12939453 82.86108398 C129.13254669 83.8723082 129.13569885 84.88353241 129.13894653 85.92539978 C129.13591019 87.5691433 129.13591019 87.5691433 129.1328125 89.24609375 C129.13424759 90.92917381 129.13424759 90.92917381 129.13571167 92.64625549 C129.13639314 95.02271582 129.13454116 97.399178 129.13037109 99.77563477 C129.12502739 103.41882504 129.13031466 107.06189174 129.13671875 110.70507812 C129.13605786 113.01041694 129.13477649 115.31575568 129.1328125 117.62109375 C129.13483673 118.71489853 129.13686096 119.80870331 129.13894653 120.93565369 C129.13579437 121.95003006 129.13264221 122.96440643 129.12939453 124.00952148 C129.12820114 125.3494944 129.12820114 125.3494944 129.12698364 126.71653748 C129 129 129 129 128 132 C128.33 132.33 128.66 132.66 129 133 C129 134.65 129 136.3 129 138 C121.08 138 113.16 138 105 138 C105 137.34 105 136.68 105 136 C103.576875 136.0309375 103.576875 136.0309375 102.125 136.0625 C99 136 99 136 97 135 C97 135.99 97 136.98 97 138 C67.96 138 38.92 138 9 138 C9 137.34 9 136.68 9 136 C6.36 136 3.72 136 1 136 C1 136.66 1 137.32 1 138 C-4.28 138 -9.56 138 -15 138 C-15 134.7 -15 131.4 -15 128 C-17.64 128 -20.28 128 -23 128 C-23 125.36 -23 122.72 -23 120 C-24.32 120 -25.64 120 -27 120 C-27.495 121.485 -27.495 121.485 -28 123 C-28 122.34 -28 121.68 -28 121 C-29.32 121 -30.64 121 -32 121 C-32.19335938 121.66386719 -32.38671875 122.32773438 -32.5859375 123.01171875 C-35.17223199 131.78207381 -35.17223199 131.78207381 -37 136 C-37.66 136 -38.32 136 -39 136 C-39 136.66 -39 137.32 -39 138 C-60.12 138 -81.24 138 -103 138 C-103 137.34 -103 136.68 -103 136 C-101.02 135.01 -101.02 135.01 -99 134 C-99.825 133.21625 -100.65 132.4325 -101.5 131.625 C-104 129 -104 129 -104 127 C-103.34 127 -102.68 127 -102 127 C-104.36292656 124.47411298 -105.66462511 123.11179163 -109 122 C-108.34 119.69 -107.68 117.38 -107 115 C-108.485 115.495 -108.485 115.495 -110 116 C-112.12579497 113.87420503 -111.44671369 109.34787605 -111.62109375 106.46875 C-111.80865234 105.24671875 -111.80865234 105.24671875 -112 104 C-112.66 103.67 -113.32 103.34 -114 103 C-114.99 103.99 -114.99 103.99 -116 105 C-116.99 104.67 -117.98 104.34 -119 104 C-119 106.64 -119 109.28 -119 112 C-121.64 112 -124.28 112 -127 112 C-127 94.51 -127 77.02 -127 59 C-122.81768023 56.90884012 -120.17729764 56.53052262 -115.5625 56.1875 C-114.26441406 56.07792969 -112.96632813 55.96835937 -111.62890625 55.85546875 C-107.76884661 56.00920632 -106.05516732 56.72186945 -103 59 C-103.185625 58.13375 -103.37125 57.2675 -103.5625 56.375 C-104.00667933 52.94847372 -103.71954492 50.35787629 -103 47 C-102.67 47 -102.34 47 -102 47 C-101.67 48.65 -101.34 50.3 -101 52 C-100.896875 50.72125 -100.79375 49.4425 -100.6875 48.125 C-100.51171875 45.9453125 -100.51171875 45.9453125 -100 44 C-99.01 43.34 -98.02 42.68 -97 42 C-97 41.34 -97 40.68 -97 40 C-96.01 40 -95.02 40 -94 40 C-94 39.34 -94 38.68 -94 38 C-93.34 38 -92.68 38 -92 38 C-92 38.66 -92 39.32 -92 40 C-91.07058594 39.9071875 -90.14117187 39.814375 -89.18359375 39.71875 C-79.39478068 39.14714048 -79.39478068 39.14714048 -75.546875 41.5 C-71.35464797 46.00928621 -70.10858719 49.9191173 -70 56 C-66.37206002 54.13433512 -66.37206002 54.13433512 -64 51 C-64.99 50.505 -64.99 50.505 -66 50 C-65.34 50 -64.68 50 -64 50 C-64 49.34 -64 48.68 -64 48 C-63.01 47.01 -63.01 47.01 -62 46 C-61.83322718 42.41656024 -61.83322718 42.41656024 -62 39 C-61.34 39.33 -60.68 39.66 -60 40 C-60 40.99 -60 41.98 -60 43 C-58.02 39.37 -56.04 35.74 -54 32 C-54.66 31.67 -55.32 31.34 -56 31 C-56 28.33333333 -56 25.66666667 -56 23 C-55.41734375 23.0721875 -54.8346875 23.144375 -54.234375 23.21875 C-48.27812636 23.8930423 -42.46146808 24.0610612 -36.46875 23.9375 C-34 24 -34 24 -32 25 C-31.26924352 27.3140622 -30.59861742 29.64828869 -30 32 C-29.01 31.505 -29.01 31.505 -28 31 C-28.42089996 36.60461531 -28.91613111 41.72086547 -31 47 C-31.66 47 -32.32 47 -33 47 C-33.60795778 49.86608669 -34.06772885 52.64342405 -34.375 55.5625 C-34.99684709 58.98265898 -35.56894026 60.56894026 -38 63 C-38.66 63 -39.32 63 -40 63 C-40.268125 63.94875 -40.53625 64.8975 -40.8125 65.875 C-42 69 -42 69 -45 71 C-46.80715362 75.06609565 -47.25907782 77.71913541 -46 82 C-45.01 82 -44.02 82 -43 82 C-42.67 81.34 -42.34 80.68 -42 80 C-41.01979625 78.9805881 -40.02196992 77.97753644 -39 77 C-40.485 77.495 -40.485 77.495 -42 78 C-41.54738642 76.56068883 -41.08767021 75.12361001 -40.625 73.6875 C-40.24214844 72.48673828 -40.24214844 72.48673828 -39.8515625 71.26171875 C-39 69 -39 69 -37 66 C-36.34 66.66 -35.68 67.32 -35 68 C-31.77110925 63.05576103 -30.4035664 60.0836227 -31 54 C-31.33 53.34 -31.66 52.68 -32 52 C-31.14075799 50.06743863 -30.18629816 48.17676729 -29.1875 46.3125 C-26.88980374 41.88237102 -25.10368062 37.85619473 -24 33 C-23.34 33.33 -22.68 33.66 -22 34 C-21.375 36.5625 -21.375 36.5625 -21 39 C-20.34 38.67 -19.68 38.34 -19 38 C-18.34227572 34.97065509 -18.34227572 34.97065509 -18 32 C-17.34 32 -16.68 32 -16 32 C-15.71125 30.906875 -15.4225 29.81375 -15.125 28.6875 C-14 25 -14 25 -12 22 C-11.60986284 20.0103005 -11.26797351 18.00980131 -11 16 C-10.01 16 -9.02 16 -8 16 C-7.34 13.69 -6.68 11.38 -6 9 C-4.68 8.67 -3.36 8.34 -2 8 C-2 6.35 -2 4.7 -2 3 C-1.34 3 -0.68 3 0 3 C0 2.01 0 1.02 0 0 Z M22 7 C22 10.63 22 14.26 22 18 C24.18331689 16.23863645 24.18331689 16.23863645 24.1953125 14.0546875 C24.17210937 13.33539062 24.14890625 12.61609375 24.125 11.875 C24.063125 9.956875 24.063125 9.956875 24 8 C23.34 7.67 22.68 7.34 22 7 Z M21 18 C21 21 21 21 21 21 Z M-54 25 C-53.67 25.66 -53.34 26.32 -53 27 C-52.67 26.34 -52.34 25.68 -52 25 C-52.66 25 -53.32 25 -54 25 Z M12 39 C12 39.66 12 40.32 12 41 C12.66 40.67 13.32 40.34 14 40 C13.34 39.67 12.68 39.34 12 39 Z M-24 43 C-24.66 44.65 -25.32 46.3 -26 48 C-25.01 47.67 -24.02 47.34 -23 47 C-23.33 45.68 -23.66 44.36 -24 43 Z M8 47 C9 49 9 49 9 49 Z M-99 49 C-99 51.97 -99 54.94 -99 58 C-98.67 58 -98.34 58 -98 58 C-98 55.03 -98 52.06 -98 49 C-98.33 49 -98.66 49 -99 49 Z M-30 49 C-29.67 51.31 -29.34 53.62 -29 56 C-28.34 55.34 -27.68 54.68 -27 54 C-27.32041397 51.39719432 -27.32041397 51.39719432 -28 49 C-28.66 49 -29.32 49 -30 49 Z M7 49 C8 51 8 51 8 51 Z M3 54 C4 57 4 57 4 57 Z M-100 58 C-100.39036513 59.60049704 -100.76178619 61.20562371 -101.125 62.8125 C-101.33382812 63.70582031 -101.54265625 64.59914063 -101.7578125 65.51953125 C-102.28880522 68.25246634 -102.28880522 68.25246634 -100 71 C-99.67 70.34 -99.34 69.68 -99 69 C-96.03 74.61 -93.06 80.22 -90 86 C-88.70397646 83.17063139 -88.70397646 83.17063139 -89.72851562 81.10229492 C-90.11716797 80.40209229 -90.50582031 79.70188965 -90.90625 78.98046875 C-91.32003906 78.20509766 -91.73382813 77.42972656 -92.16015625 76.63085938 C-93.04844905 75.01095516 -93.94163154 73.39372203 -94.83984375 71.77929688 C-98.04544729 65.7425762 -98.04544729 65.7425762 -97.78125 61.42578125 C-97.5234375 60.62527344 -97.265625 59.82476562 -97 59 C-97.99 58.67 -98.98 58.34 -100 58 Z M0 58 C1 60 1 60 1 60 Z M2 58 C3 60 3 60 3 60 Z M1 60 C2 62 2 62 2 62 Z M-97 61 C-96.67 62.65 -96.34 64.3 -96 66 C-95.67 65.01 -95.34 64.02 -95 63 C-95.66 62.34 -96.32 61.68 -97 61 Z M-63 64 C-62 66 -62 66 -62 66 Z M-62 66 C-61 68 -61 68 -61 68 Z M-93 68 C-93.33 68.66 -93.66 69.32 -94 70 C-93.34 70 -92.68 70 -92 70 C-92.33 69.34 -92.66 68.68 -93 68 Z M-61 68 C-60 70 -60 70 -60 70 Z M-92 70 C-91 73 -91 73 -91 73 Z M-37 70 C-37.33 70.99 -37.66 71.98 -38 73 C-37.34 73 -36.68 73 -36 73 C-36.33 72.01 -36.66 71.02 -37 70 Z M-7 72 C-7.33 72.99 -7.66 73.98 -8 75 C-6.02 75 -4.04 75 -2 75 C-2.33 74.01 -2.66 73.02 -3 72 C-4.32 72 -5.64 72 -7 72 Z M-91 73 C-90 75 -90 75 -90 75 Z M-99 74 C-98.01 75.485 -98.01 75.485 -97 77 C-97 76.01 -97 75.02 -97 74 C-97.66 74 -98.32 74 -99 74 Z M-90 75 C-89 77 -89 77 -89 77 Z M-9 75 C-9.33 76.65 -9.66 78.3 -10 80 C-9.34 79.34 -8.68 78.68 -8 78 C-8.33 77.01 -8.66 76.02 -9 75 Z M-7 77 C-8.06775224 78.96466413 -9.06553465 80.96855359 -10 83 C-9.67 83.66 -9.34 84.32 -9 85 C-7.3516367 83.24755753 -7.3516367 83.24755753 -6 81 C-6.21717352 78.79199472 -6.21717352 78.79199472 -7 77 Z M-50 80 C-49 83 -49 83 -49 83 Z M-11 80 C-11.33 80.66 -11.66 81.32 -12 82 C-11.34 82 -10.68 82 -10 82 C-10.33 81.34 -10.66 80.68 -11 80 Z M-95 81 C-94 83 -94 83 -94 83 Z M-56 81 C-55 83 -55 83 -55 83 Z M-87 82 C-86.34 83.65 -85.68 85.3 -85 87 C-84.67 86.01 -84.34 85.02 -84 84 C-84.33 83.34 -84.66 82.68 -85 82 C-85.66 82 -86.32 82 -87 82 Z M-94 83 C-93 85 -93 85 -93 85 Z M-53 83 C-53 84.65 -53 86.3 -53 88 C-52.67 88 -52.34 88 -52 88 C-52 86.35 -52 84.7 -52 83 C-52.33 83 -52.66 83 -53 83 Z M-49 83 C-48 85 -48 85 -48 85 Z M-44 84 C-44.66 85.32 -45.32 86.64 -46 88 C-45.01 87.67 -44.02 87.34 -43 87 C-43.33 86.01 -43.66 85.02 -44 84 Z M-12 85 C-11.34 86.32 -10.68 87.64 -10 89 C-10 87.68 -10 86.36 -10 85 C-10.66 85 -11.32 85 -12 85 Z M-88 88 C-87 90 -87 90 -87 90 Z M-48 88 C-48.6814823 89.89179203 -48.6814823 89.89179203 -49 92 C-48.34 92.66 -47.68 93.32 -47 94 C-46.67 92.35 -46.34 90.7 -46 89 C-46.66 88.67 -47.32 88.34 -48 88 Z M-1 88 C-1.33 88.66 -1.66 89.32 -2 90 C-1.34 90 -0.68 90 0 90 C-0.33 89.34 -0.66 88.68 -1 88 Z M-86 89 C-86.33 89.66 -86.66 90.32 -87 91 C-86.34 91 -85.68 91 -85 91 C-85.33 90.34 -85.66 89.68 -86 89 Z M4 89 C8 90 8 90 8 90 Z M53 90 C53 90.99 53 91.98 53 93 C53.99 93 54.98 93 56 93 C55.01 92.01 54.02 91.02 53 90 Z M-80 93 C-79 95 -79 95 -79 95 Z M-18 93 C-18.66 94.65 -19.32 96.3 -20 98 C-19.01 98 -18.02 98 -17 98 C-16.67 96.68 -16.34 95.36 -16 94 C-16.66 93.67 -17.32 93.34 -18 93 Z M56 93 C57 95 57 95 57 95 Z M-79 96 C-78 99 -78 99 -78 99 Z M36 96 C35.67 99.3 35.34 102.6 35 106 C35.99 106 36.98 106 38 106 C38 104.68 38 103.36 38 102 C39.98 102.66 41.96 103.32 44 104 C43.23883449 102.84772177 42.46567307 101.7033614 41.6875 100.5625 C41.25824219 99.92441406 40.82898438 99.28632812 40.38671875 98.62890625 C38.9965948 96.7114316 38.9965948 96.7114316 36 96 Z M88 97 C86.9739266 98.31337396 85.97272675 99.64664105 85 101 C85.66 102.32 86.32 103.64 87 105 C87.66 102.36 88.32 99.72 89 97 C88.67 97 88.34 97 88 97 Z M33 99 C34 101 34 101 34 101 Z M61 99 C61.33 99.99 61.66 100.98 62 102 C62.33 101.01 62.66 100.02 63 99 C62.34 99 61.68 99 61 99 Z M-75 102 C-74 104 -74 104 -74 104 Z M4 102 C8 103 8 103 8 103 Z M109 102 C113 103 113 103 113 103 Z M0 103 C4 104 4 104 4 104 Z M84 103 C81.91523172 112.37284253 80.89240724 120.3170923 86 129 C88.312879 130.45263225 90.36649887 131.15529209 93 132 C93 131.01 93 130.02 93 129 C92.34 129 91.68 129 91 129 C90.67 128.01 90.34 127.02 90 126 C89.67 126.66 89.34 127.32 89 128 C88.34 128 87.68 128 87 128 C85.97096757 122.66189429 85.95934418 117.6344307 86.0625 112.21875 C86.00088087 109.04536495 85.59997609 106.11237599 85 103 C84.67 103 84.34 103 84 103 Z M17 104 C18 106 18 106 18 106 Z M105 104 C103.90341064 107.28976808 104.20046862 108.71303767 105 112 C107.64 112 110.28 112 113 112 C113 109.36 113 106.72 113 104 C110.36 104 107.72 104 105 104 Z M11 105 C11 105.33 11 105.66 11 106 C12.65 106 14.3 106 16 106 C16 105.67 16 105.34 16 105 C14.35 105 12.7 105 11 105 Z M40 105 C40 108.96 40 112.92 40 117 C40.99 116.34 41.98 115.68 43 115 C42.67 113.02 42.34 111.04 42 109 C44.475 109.99 44.475 109.99 47 111 C46.34 109.02 45.68 107.04 45 105 C43.35 105 41.7 105 40 105 Z M-109 110 C-108 112 -108 112 -108 112 Z M-27 110 C-26 112 -26 112 -26 112 Z M71 111 C71.66 111.66 72.32 112.32 73 113 C73 112.34 73 111.68 73 111 C72.34 111 71.68 111 71 111 Z M-72 112 C-71 114 -71 114 -71 114 Z M-28 112 C-27 114 -27 114 -27 114 Z M104 112 C105 115 105 115 105 115 Z M47 113 C46.67 114.32 46.34 115.64 46 117 C46.99 115.68 47.98 114.36 49 113 C48.34 113 47.68 113 47 113 Z M-29 114 C-28 116 -28 116 -28 116 Z M-68 116 C-68.33 116.99 -68.66 117.98 -69 119 C-68.01 118.67 -67.02 118.34 -66 118 C-66.66 117.34 -67.32 116.68 -68 116 Z M-30 116 C-29 118 -29 118 -29 118 Z M13 117 C17 118 17 118 17 118 Z M42 117 C41.34 117.66 40.68 118.32 40 119 C41.485 119.99 41.485 119.99 43 121 C43.66 120.01 44.32 119.02 45 118 C44.01 117.67 43.02 117.34 42 117 Z M86 119 C87 121 87 121 87 121 Z M-71 120 C-70 122 -70 122 -70 122 Z M17 119 C12.545 119.495 12.545 119.495 8 120 C8.33 120.99 8.66 121.98 9 123 C11.97 123 14.94 123 18 123 C17.67 121.68 17.34 120.36 17 119 Z M39 120 C40 123 40 123 40 123 Z M-67 121 C-67.33 121.99 -67.66 122.98 -68 124 C-68.66 124 -69.32 124 -70 124 C-70.66 123.34 -71.32 122.68 -72 122 C-72.33 122.99 -72.66 123.98 -73 125 C-70.29120665 126.35439668 -67.99066732 126.06501451 -65 126 C-65.33 124.35 -65.66 122.7 -66 121 C-66.33 121 -66.66 121 -67 121 Z M87 122 C88 124 88 124 88 124 Z M88 124 C89 126 89 126 89 126 Z M59 125 C59.59687434 128.34249629 60.73603877 130.46436342 63 133 C63.66 133 64.32 133 65 133 C64.65120368 129.74456771 63.97866739 128.98126893 61.4375 126.75 C60.633125 126.1725 59.82875 125.595 59 125 Z M-71 127 C-71.66 128.11375 -72.32 129.2275 -73 130.375 C-73.37125 131.00148437 -73.7425 131.62796875 -74.125 132.2734375 C-75.15068348 133.97472667 -75.15068348 133.97472667 -75 136 C-70.71 136 -66.42 136 -62 136 C-60.59903754 132.92757947 -60.59903754 132.92757947 -62.4375 129.8125 C-62.953125 128.884375 -63.46875 127.95625 -64 127 C-66.31 127 -68.62 127 -71 127 Z M-62 128 C-61.67 128.99 -61.34 129.98 -61 131 C-61 130.01 -61 129.02 -61 128 C-61.33 128 -61.66 128 -62 128 Z M33 128 C34 131 34 131 34 131 Z M-99 129 C-98 131 -98 131 -98 131 Z M38 129 C37.01 129.495 37.01 129.495 36 130 C36.66 131.65 37.32 133.3 38 135 C38.99 133.68 39.98 132.36 41 131 C40.34 131 39.68 131 39 131 C38.67 130.34 38.34 129.68 38 129 Z M86 130 C86 131.65 86 133.3 86 135 C86.33 135 86.66 135 87 135 C87 133.35 87 131.7 87 130 C86.67 130 86.34 130 86 130 Z M41 132 C41 132.66 41 133.32 41 134 C41.66 133.67 42.32 133.34 43 133 C42.34 132.67 41.68 132.34 41 132 Z M56 132 C55.34 133.32 54.68 134.64 54 136 C55.32 135.01 56.64 134.02 58 133 C57.34 132.67 56.68 132.34 56 132 Z M-39 133 C-38 135 -38 135 -38 135 Z M58 134 C58.33 134.66 58.66 135.32 59 136 C59.66 135.67 60.32 135.34 61 135 C60.01 134.67 59.02 134.34 58 134 Z M73 136 C75.97 136 78.94 136 82 136 C82 135.34 82 134.68 82 134 C78.02958963 133.77942165 76.76687864 134.11656068 73 136 Z M83 134 C83 134.66 83 135.32 83 136 C83.66 136 84.32 136 85 136 C85 135.34 85 134.68 85 134 C84.34 134 83.68 134 83 134 Z M118 134 C122 135 122 135 122 135 Z M-79 135 C-78 137 -78 137 -78 137 Z " fill="#0ACE9B" transform="translate(127,0)"/>
<path d="M0 0 C0.66 0.33 1.32 0.66 2 1 C2 9.91 2 18.82 2 28 C-2.95 28.33 -7.9 28.66 -13 29 C-13.99 32.96 -14.98 36.92 -16 41 C-15.34 41 -14.68 41 -14 41 C-14 41.99 -14 42.98 -14 44 C22.96 44 59.92 44 98 44 C98 42.68 98 41.36 98 40 C102.95 40 107.9 40 113 40 C114.23446117 42.46892235 114.12693347 44.10019897 114.12939453 46.86108398 C114.13254669 47.8723082 114.13569885 48.88353241 114.13894653 49.92539978 C114.13591019 51.5691433 114.13591019 51.5691433 114.1328125 53.24609375 C114.13376923 54.36814713 114.13472595 55.4902005 114.13571167 56.64625549 C114.13639314 59.02271582 114.13454116 61.399178 114.13037109 63.77563477 C114.12502739 67.41882504 114.13031466 71.06189174 114.13671875 74.70507812 C114.13605786 77.01041694 114.13477649 79.31575568 114.1328125 81.62109375 C114.13483673 82.71489853 114.13686096 83.80870331 114.13894653 84.93565369 C114.13421829 86.45721825 114.13421829 86.45721825 114.12939453 88.00952148 C114.12859894 88.90283676 114.12780334 89.79615204 114.12698364 90.71653748 C114 93 114 93 113 96 C113.33 96.33 113.66 96.66 114 97 C114 98.65 114 100.3 114 102 C106.08 102 98.16 102 90 102 C90 101.34 90 100.68 90 100 C89.05125 100.020625 88.1025 100.04125 87.125 100.0625 C84 100 84 100 82 99 C82 99.99 82 100.98 82 102 C52.96 102 23.92 102 -6 102 C-6 101.34 -6 100.68 -6 100 C-8.64 100 -11.28 100 -14 100 C-14 100.66 -14 101.32 -14 102 C-19.28 102 -24.56 102 -30 102 C-30 98.7 -30 95.4 -30 92 C-32.64 92 -35.28 92 -38 92 C-38 89.36 -38 86.72 -38 84 C-39.32 84 -40.64 84 -42 84 C-42.33 84.99 -42.66 85.98 -43 87 C-44 84 -44 84 -43.30322266 82.14648438 C-42.9272998 81.46908203 -42.55137695 80.79167969 -42.1640625 80.09375 C-41.75929688 79.34996094 -41.35453125 78.60617188 -40.9375 77.83984375 C-40.504375 77.06769531 -40.07125 76.29554687 -39.625 75.5 C-38.78197579 73.96978333 -37.94075431 72.43857176 -37.1015625 70.90625 C-36.72338379 70.22884766 -36.34520508 69.55144531 -35.95556641 68.85351562 C-34.86839776 66.86126451 -34.86839776 66.86126451 -34 64 C-33.35545994 62.65583099 -32.68634444 61.32331158 -32 60 C-31.62101562 59.2678125 -31.24203125 58.535625 -30.8515625 57.78125 C-28.57707088 53.55098533 -26.40391721 50.40391721 -23 47 C-21.93707998 43.64771379 -21.87262287 42.38213139 -23 39 C-21.02 39 -19.04 39 -17 39 C-17.21640137 38.28593994 -17.43280273 37.57187988 -17.65576172 36.83618164 C-18.09200265 33.24198952 -17.24019241 31.77059716 -15.5078125 28.62109375 C-14.96769531 27.61755859 -14.42757812 26.61402344 -13.87109375 25.58007812 C-13.29488281 24.54302734 -12.71867187 23.50597656 -12.125 22.4375 C-10.99897567 20.37567541 -9.87642878 18.31194686 -8.7578125 16.24609375 C-8.00201904 14.87988892 -8.00201904 14.87988892 -7.23095703 13.48608398 C-6.14375492 11.29033248 -5.4687506 9.39230466 -5 7 C-4.34 7 -3.68 7 -3 7 C-2.690625 6.030625 -2.38125 5.06125 -2.0625 4.0625 C-1 1 -1 1 0 0 Z M-16 52 C-16.33 52.66 -16.66 53.32 -17 54 C-16.34 54 -15.68 54 -15 54 C-15.33 53.34 -15.66 52.68 -16 52 Z M-11 53 C-7 54 -7 54 -7 54 Z M38 54 C38 54.99 38 55.98 38 57 C38.99 57 39.98 57 41 57 C40.01 56.01 39.02 55.02 38 54 Z M41 57 C42 59 42 59 42 59 Z M21 60 C20.67 63.3 20.34 66.6 20 70 C20.99 70 21.98 70 23 70 C23 68.68 23 67.36 23 66 C24.98 66.66 26.96 67.32 29 68 C28.23883449 66.84772177 27.46567307 65.7033614 26.6875 64.5625 C26.25824219 63.92441406 25.82898438 63.28632812 25.38671875 62.62890625 C23.9965948 60.7114316 23.9965948 60.7114316 21 60 Z M73 61 C71.9739266 62.31337396 70.97272675 63.64664105 70 65 C70.66 66.32 71.32 67.64 72 69 C72.66 66.36 73.32 63.72 74 61 C73.67 61 73.34 61 73 61 Z M18 63 C19 65 19 65 19 65 Z M46 63 C46.33 63.99 46.66 64.98 47 66 C47.33 65.01 47.66 64.02 48 63 C47.34 63 46.68 63 46 63 Z M-11 66 C-7 67 -7 67 -7 67 Z M94 66 C98 67 98 67 98 67 Z M-15 67 C-11 68 -11 68 -11 68 Z M69 67 C66.91523172 76.37284253 65.89240724 84.3170923 71 93 C73.312879 94.45263225 75.36649887 95.15529209 78 96 C78 95.01 78 94.02 78 93 C77.34 93 76.68 93 76 93 C75.67 92.01 75.34 91.02 75 90 C74.67 90.66 74.34 91.32 74 92 C73.34 92 72.68 92 72 92 C70.97096757 86.66189429 70.95934418 81.6344307 71.0625 76.21875 C71.00088087 73.04536495 70.59997609 70.11237599 70 67 C69.67 67 69.34 67 69 67 Z M2 68 C3 70 3 70 3 70 Z M90 68 C88.90341064 71.28976808 89.20046862 72.71303767 90 76 C92.64 76 95.28 76 98 76 C98 73.36 98 70.72 98 68 C95.36 68 92.72 68 90 68 Z M-4 69 C-4 69.33 -4 69.66 -4 70 C-2.35 70 -0.7 70 1 70 C1 69.67 1 69.34 1 69 C-0.65 69 -2.3 69 -4 69 Z M25 69 C25 72.96 25 76.92 25 81 C25.99 80.34 26.98 79.68 28 79 C27.67 77.02 27.34 75.04 27 73 C29.475 73.99 29.475 73.99 32 75 C31.34 73.02 30.68 71.04 30 69 C28.35 69 26.7 69 25 69 Z M56 75 C56.66 75.66 57.32 76.32 58 77 C58 76.34 58 75.68 58 75 C57.34 75 56.68 75 56 75 Z M89 76 C90 79 90 79 90 79 Z M32 77 C31.67 78.32 31.34 79.64 31 81 C31.99 79.68 32.98 78.36 34 77 C33.34 77 32.68 77 32 77 Z M-2 81 C2 82 2 82 2 82 Z M27 81 C26.34 81.66 25.68 82.32 25 83 C26.485 83.99 26.485 83.99 28 85 C28.66 84.01 29.32 83.02 30 82 C29.01 81.67 28.02 81.34 27 81 Z M71 83 C72 85 72 85 72 85 Z M2 83 C-2.455 83.495 -2.455 83.495 -7 84 C-6.67 84.99 -6.34 85.98 -6 87 C-3.03 87 -0.06 87 3 87 C2.67 85.68 2.34 84.36 2 83 Z M24 84 C25 87 25 87 25 87 Z M72 86 C73 88 73 88 73 88 Z M73 88 C74 90 74 90 74 90 Z M44 89 C44.59687434 92.34249629 45.73603877 94.46436342 48 97 C48.66 97 49.32 97 50 97 C49.65120368 93.74456771 48.97866739 92.98126893 46.4375 90.75 C45.633125 90.1725 44.82875 89.595 44 89 Z M18 92 C19 95 19 95 19 95 Z M23 93 C22.01 93.495 22.01 93.495 21 94 C21.66 95.65 22.32 97.3 23 99 C23.99 97.68 24.98 96.36 26 95 C25.34 95 24.68 95 24 95 C23.67 94.34 23.34 93.68 23 93 Z M71 94 C71 95.65 71 97.3 71 99 C71.33 99 71.66 99 72 99 C72 97.35 72 95.7 72 94 C71.67 94 71.34 94 71 94 Z M26 96 C26 96.66 26 97.32 26 98 C26.66 97.67 27.32 97.34 28 97 C27.34 96.67 26.68 96.34 26 96 Z M41 96 C40.34 97.32 39.68 98.64 39 100 C40.32 99.01 41.64 98.02 43 97 C42.34 96.67 41.68 96.34 41 96 Z M43 98 C43.33 98.66 43.66 99.32 44 100 C44.66 99.67 45.32 99.34 46 99 C45.01 98.67 44.02 98.34 43 98 Z M58 100 C60.97 100 63.94 100 67 100 C67 99.34 67 98.68 67 98 C63.02958963 97.77942165 61.76687864 98.11656068 58 100 Z M68 98 C68 98.66 68 99.32 68 100 C68.66 100 69.32 100 70 100 C70 99.34 70 98.68 70 98 C69.34 98 68.68 98 68 98 Z M103 98 C107 99 107 99 107 99 Z " fill="#010304" transform="translate(142,36)"/>
<path d="M0 0 C3.08422721 1.5421136 4.17008786 3.0848091 5.5 6.25 C6.16 6.25 6.82 6.25 7.5 6.25 C7.809375 7.343125 8.11875 8.43625 8.4375 9.5625 C9.08337897 11.80407994 9.7623117 14.0369351 10.5 16.25 C10.995 14.765 10.995 14.765 11.5 13.25 C13.975 13.745 13.975 13.745 16.5 14.25 C15.695625 13.46625 14.89125 12.6825 14.0625 11.875 C11.5 9.25 11.5 9.25 10.5 7.25 C11.33808829 3.71140501 12.43909778 2.30382056 15.1875 -0.125 C19.21672878 -2.1016028 21.21691809 -1.90313744 25.5 -0.75 C27.5 1.25 27.5 1.25 27.5 4.25 C29.15 4.58 30.8 4.91 32.5 5.25 C32.5 6.24 32.5 7.23 32.5 8.25 C33.49 8.25 34.48 8.25 35.5 8.25 C35.83 7.26 36.16 6.27 36.5 5.25 C37.16 5.25 37.82 5.25 38.5 5.25 C38.5928125 4.321875 38.5928125 4.321875 38.6875 3.375 C39.5 1.25 39.5 1.25 41.6875 0 C45.71907257 -1.07508602 48.97881309 -1.39049975 52.875 0.25 C53.41125 0.58 53.9475 0.91 54.5 1.25 C54.5 1.91 54.5 2.57 54.5 3.25 C55.16 3.25 55.82 3.25 56.5 3.25 C57.70749542 8.73861553 57.5330522 11.49821823 54.5 16.25 C52.92733635 18.4044013 51.32510333 20.28450411 49.5 22.25 C48.84 22.25 48.18 22.25 47.5 22.25 C47.63034494 24.12053397 47.63034494 24.12053397 48.5 26.25 C49.263125 26.848125 50.02625 27.44625 50.8125 28.0625 C54.06035271 30.70610105 56.12906075 33.26932098 57.5 37.25 C57.25 41.1875 57.25 41.1875 56.5 44.25 C54.52 44.91 52.54 45.57 50.5 46.25 C51.16 46.91 51.82 47.57 52.5 48.25 C49.12021442 49.37659519 46.57183864 49.37020983 43.0090332 49.36352539 C42.02814224 49.36374443 42.02814224 49.36374443 41.0274353 49.3639679 C38.86851674 49.36327188 36.70968472 49.35549408 34.55078125 49.34765625 C33.05291287 49.34579096 31.55504389 49.34436758 30.05717468 49.34336853 C26.11654981 49.33955207 22.17596186 49.3297292 18.23535156 49.31866455 C14.21354675 49.30843172 10.19173596 49.3038669 6.16992188 49.29882812 C-1.72006901 49.28810616 -9.61002991 49.27104017 -17.5 49.25 C-17.5 48.59 -17.5 47.93 -17.5 47.25 C-18.37011719 47.30220703 -18.37011719 47.30220703 -19.2578125 47.35546875 C-24.44988011 47.53539189 -28.07898328 47.30260678 -32.5 44.25 C-34.25 41.875 -34.25 41.875 -35.5 39.25 C-35.933125 38.528125 -36.36625 37.80625 -36.8125 37.0625 C-37.91694345 32.54432225 -37.07518734 28.58513098 -35.5 24.25 C-33.74508613 21.63155708 -31.78276303 19.41790703 -29.5 17.25 C-30.49 16.92 -31.48 16.59 -32.5 16.25 C-34.78220598 13.00686518 -34.82343382 10.1312058 -34.5 6.25 C-33.875 3.9375 -33.875 3.9375 -32.5 2.25 C-29.375 1.5 -29.375 1.5 -26.5 1.25 C-26.5 0.59 -26.5 -0.07 -26.5 -0.75 C-18.92279134 -3.27573622 -7.42480204 -3.10381069 0 0 Z M-22.5 0.25 C-18.5 1.25 -18.5 1.25 -18.5 1.25 Z M6.5 10.25 C7.5 12.25 7.5 12.25 7.5 12.25 Z M34.5 10.25 C34.83 11.24 35.16 12.23 35.5 13.25 C35.83 12.26 36.16 11.27 36.5 10.25 C35.84 10.25 35.18 10.25 34.5 10.25 Z M-22.5 13.25 C-18.5 14.25 -18.5 14.25 -18.5 14.25 Z M-26.5 14.25 C-22.5 15.25 -22.5 15.25 -22.5 15.25 Z M-9.5 15.25 C-8.5 17.25 -8.5 17.25 -8.5 17.25 Z M-15.5 16.25 C-15.5 16.58 -15.5 16.91 -15.5 17.25 C-13.85 17.25 -12.2 17.25 -10.5 17.25 C-10.5 16.92 -10.5 16.59 -10.5 16.25 C-12.15 16.25 -13.8 16.25 -15.5 16.25 Z M13.5 16.25 C13.5 20.21 13.5 24.17 13.5 28.25 C14.49 27.59 15.48 26.93 16.5 26.25 C16.17 24.27 15.84 22.29 15.5 20.25 C17.975 21.24 17.975 21.24 20.5 22.25 C19.84 20.27 19.18 18.29 18.5 16.25 C16.85 16.25 15.2 16.25 13.5 16.25 Z M44.5 22.25 C45.16 22.91 45.82 23.57 46.5 24.25 C46.5 23.59 46.5 22.93 46.5 22.25 C45.84 22.25 45.18 22.25 44.5 22.25 Z M20.5 24.25 C20.17 25.57 19.84 26.89 19.5 28.25 C20.49 26.93 21.48 25.61 22.5 24.25 C21.84 24.25 21.18 24.25 20.5 24.25 Z M-13.5 28.25 C-9.5 29.25 -9.5 29.25 -9.5 29.25 Z M15.5 28.25 C14.84 28.91 14.18 29.57 13.5 30.25 C14.985 31.24 14.985 31.24 16.5 32.25 C17.16 31.26 17.82 30.27 18.5 29.25 C17.51 28.92 16.52 28.59 15.5 28.25 Z M-9.5 30.25 C-13.955 30.745 -13.955 30.745 -18.5 31.25 C-18.17 32.24 -17.84 33.23 -17.5 34.25 C-14.53 34.25 -11.56 34.25 -8.5 34.25 C-8.83 32.93 -9.16 31.61 -9.5 30.25 Z M12.5 31.25 C13.5 34.25 13.5 34.25 13.5 34.25 Z M32.5 36.25 C33.09687434 39.59249629 34.23603877 41.71436342 36.5 44.25 C37.16 44.25 37.82 44.25 38.5 44.25 C38.15120368 40.99456771 37.47866739 40.23126893 34.9375 38 C34.133125 37.4225 33.32875 36.845 32.5 36.25 Z M6.5 39.25 C7.5 42.25 7.5 42.25 7.5 42.25 Z M11.5 40.25 C10.51 40.745 10.51 40.745 9.5 41.25 C10.16 42.9 10.82 44.55 11.5 46.25 C12.49 44.93 13.48 43.61 14.5 42.25 C13.84 42.25 13.18 42.25 12.5 42.25 C12.17 41.59 11.84 40.93 11.5 40.25 Z M14.5 43.25 C14.5 43.91 14.5 44.57 14.5 45.25 C15.16 44.92 15.82 44.59 16.5 44.25 C15.84 43.92 15.18 43.59 14.5 43.25 Z M29.5 43.25 C28.84 44.57 28.18 45.89 27.5 47.25 C28.82 46.26 30.14 45.27 31.5 44.25 C30.84 43.92 30.18 43.59 29.5 43.25 Z M31.5 45.25 C31.83 45.91 32.16 46.57 32.5 47.25 C33.16 46.92 33.82 46.59 34.5 46.25 C33.51 45.92 32.52 45.59 31.5 45.25 Z " fill="#0EC5BA" transform="translate(153.5,88.75)"/>
<path d="M0 0 C4.95 0 9.9 0 15 0 C16.23446117 2.46892235 16.12693347 4.10019897 16.12939453 6.86108398 C16.13254669 7.8723082 16.13569885 8.88353241 16.13894653 9.92539978 C16.1369223 11.02122879 16.13489807 12.1170578 16.1328125 13.24609375 C16.13376923 14.36814713 16.13472595 15.4902005 16.13571167 16.64625549 C16.13639314 19.02271582 16.13454116 21.399178 16.13037109 23.77563477 C16.12502739 27.41882504 16.13031466 31.06189174 16.13671875 34.70507812 C16.13605786 37.01041694 16.13477649 39.31575568 16.1328125 41.62109375 C16.13483673 42.71489853 16.13686096 43.80870331 16.13894653 44.93565369 C16.13421829 46.45721825 16.13421829 46.45721825 16.12939453 48.00952148 C16.12859894 48.90283676 16.12780334 49.79615204 16.12698364 50.71653748 C16 53 16 53 15 56 C15.33 56.33 15.66 56.66 16 57 C16 58.65 16 60.3 16 62 C8.08 62 0.16 62 -8 62 C-8 61.34 -8 60.68 -8 60 C-8.92232422 60.05220703 -8.92232422 60.05220703 -9.86328125 60.10546875 C-10.67152344 60.13253906 -11.47976562 60.15960938 -12.3125 60.1875 C-13.51326172 60.23970703 -13.51326172 60.23970703 -14.73828125 60.29296875 C-17 60 -17 60 -18.79296875 58.67578125 C-20 57 -20 57 -20 54 C-21.43750191 52.31201173 -21.43750191 52.31201173 -23 51 C-24.485 51.495 -24.485 51.495 -26 52 C-28.1624505 46.71018084 -28.33411346 41.99449987 -28.3125 36.375 C-28.33666992 35.1065625 -28.33666992 35.1065625 -28.36132812 33.8125 C-28.36502493 29.12494882 -28.21582223 26.61461813 -25 23 C-25 21.68 -25 20.36 -25 19 C-20.23290338 13.98843689 -14.57931773 11.34933435 -7.64453125 10.8203125 C-5.76207951 10.81364895 -3.87966941 10.89747258 -2 11 C-2 8.69 -2 6.38 -2 4 C-1.34 4 -0.68 4 0 4 C0 2.68 0 1.36 0 0 Z M-4 26 C0 27 0 27 0 27 Z M-8 28 C-9.09658936 31.28976808 -8.79953138 32.71303767 -8 36 C-5.36 36 -2.72 36 0 36 C0 33.36 0 30.72 0 28 C-2.64 28 -5.28 28 -8 28 Z M-9 36 C-8 39 -8 39 -8 39 Z M-27 43 C-26 45 -26 45 -26 45 Z M-26 46 C-25 48 -25 48 -25 48 Z M-25 48 C-24 50 -24 50 -24 50 Z M5 58 C9 59 9 59 9 59 Z " fill="#0CBBE7" transform="translate(240,76)"/>
<path d="M0 0 C2 2 2 2 2 5 C4.475 5.495 4.475 5.495 7 6 C7 6.99 7 7.98 7 9 C7.99 9 8.98 9 10 9 C10.33 8.01 10.66 7.02 11 6 C11.66 6 12.32 6 13 6 C13.0928125 5.071875 13.0928125 5.071875 13.1875 4.125 C14 2 14 2 16.1875 0.75 C20.21907257 -0.32508602 23.47881309 -0.64049975 27.375 1 C27.91125 1.33 28.4475 1.66 29 2 C29 2.66 29 3.32 29 4 C29.66 4 30.32 4 31 4 C32.20749542 9.48861553 32.0330522 12.24821823 29 17 C27.42733635 19.1544013 25.82510333 21.03450411 24 23 C23.34 23 22.68 23 22 23 C22.13034494 24.87053397 22.13034494 24.87053397 23 27 C23.763125 27.598125 24.52625 28.19625 25.3125 28.8125 C28.56035271 31.45610105 30.62906075 34.01932098 32 38 C31.75 41.9375 31.75 41.9375 31 45 C29.02 45.66 27.04 46.32 25 47 C25.66 47.66 26.32 48.32 27 49 C22.07736709 50.64087764 16.97873801 50.22509455 11.82299805 50.24023438 C9.83695416 50.24988122 7.85105277 50.28105706 5.86523438 50.3125 C-1.14679392 50.3409897 -6.64909476 50.06651079 -13 47 C-13 45 -13 43 -13 41 C-13.66 41 -14.32 41 -15 41 C-15.94137255 38.17588235 -16.11725382 36.47081968 -16.09765625 33.55078125 C-16.09443359 32.70322266 -16.09121094 31.85566406 -16.08789062 30.98242188 C-16.07951172 30.10134766 -16.07113281 29.22027344 -16.0625 28.3125 C-16.05798828 27.41982422 -16.05347656 26.52714844 -16.04882812 25.60742188 C-16.03704983 23.40488013 -16.02060164 21.20247401 -16 19 C-15.67 19 -15.34 19 -15 19 C-14.67 24.28 -14.34 29.56 -14 35 C-13.34 35 -12.68 35 -12 35 C-11.67 33.68 -11.34 32.36 -11 31 C-10.01 31 -9.02 31 -8 31 C-8.66 29.35 -9.32 27.7 -10 26 C-10.33 26 -10.66 26 -11 26 C-11 24.02 -11 22.04 -11 20 C-8.525 20.99 -8.525 20.99 -6 22 C-6.71563266 19.9837767 -6.71563266 19.9837767 -8 18 C-10.05000871 17.19471111 -10.05000871 17.19471111 -12 17 C-12 16.34 -12 15.68 -12 15 C-11.01 15 -10.02 15 -9 15 C-9.804375 14.21625 -10.60875 13.4325 -11.4375 12.625 C-14 10 -14 10 -15 8 C-14.16191171 4.46140501 -13.06090222 3.05382056 -10.3125 0.625 C-6.28327122 -1.3516028 -4.28308191 -1.15313744 0 0 Z M9 11 C9.33 11.99 9.66 12.98 10 14 C10.33 13.01 10.66 12.02 11 11 C10.34 11 9.68 11 9 11 Z M19 23 C19.66 23.66 20.32 24.32 21 25 C21 24.34 21 23.68 21 23 C20.34 23 19.68 23 19 23 Z M-5 25 C-5.33 26.32 -5.66 27.64 -6 29 C-5.01 27.68 -4.02 26.36 -3 25 C-3.66 25 -4.32 25 -5 25 Z M7 37 C7.59687434 40.34249629 8.73603877 42.46436342 11 45 C11.66 45 12.32 45 13 45 C12.65120368 41.74456771 11.97866739 40.98126893 9.4375 38.75 C8.633125 38.1725 7.82875 37.595 7 37 Z M-11 44 C-11 44.66 -11 45.32 -11 46 C-10.34 45.67 -9.68 45.34 -9 45 C-9.66 44.67 -10.32 44.34 -11 44 Z M4 44 C3.34 45.32 2.68 46.64 2 48 C3.32 47.01 4.64 46.02 6 45 C5.34 44.67 4.68 44.34 4 44 Z M6 46 C6.33 46.66 6.66 47.32 7 48 C7.66 47.67 8.32 47.34 9 47 C8.01 46.67 7.02 46.34 6 46 Z " fill="#11C2D1" transform="translate(179,88)"/>
<path d="M0 0 C3.96 0 7.92 0 12 0 C12 10.56 12 21.12 12 32 C6.72 32 1.44 32 -4 32 C-0.25 23.125 -0.25 23.125 2 22 C4.48559192 15.22639862 4.43890475 9.16559045 1.4375 2.5625 C0.963125 1.716875 0.48875 0.87125 0 0 Z " fill="#000102" transform="translate(148,0)"/>
<path d="M0 0 C0.66 0.33 1.32 0.66 2 1 C1.69449219 1.55171875 1.38898438 2.1034375 1.07421875 2.671875 C-3.28882749 12.12778612 -1.99335701 21.42125757 1 31 C1.556875 31.0825 2.11375 31.165 2.6875 31.25 C5.76869581 32.24930675 7.62683244 33.81418777 10 36 C10.66 37.32 11.32 38.64 12 40 C5.07 40 -1.86 40 -9 40 C-6 38 -6 38 -3 38 C-1.97793189 33.54935794 -1.22722948 29.70113242 -3.1640625 25.4375 C-5.12645885 22.49873896 -7.09690104 19.83060248 -9.703125 17.43359375 C-11 16 -11 16 -11 13 C-9.3563186 11.31066078 -7.6857124 9.64740076 -6 8 C-5.278125 6.906875 -4.55625 5.81375 -3.8125 4.6875 C-3.214375 3.800625 -2.61625 2.91375 -2 2 C-1.34 2 -0.68 2 0 2 C0 1.34 0 0.68 0 0 Z M1 32 C1 33.65 1 35.3 1 37 C1.33 37 1.66 37 2 37 C2 35.35 2 33.7 2 32 C1.67 32 1.34 32 1 32 Z M-2 36 C-2 36.66 -2 37.32 -2 38 C-1.34 38 -0.68 38 0 38 C0 37.34 0 36.68 0 36 C-0.66 36 -1.32 36 -2 36 Z " fill="#071116" transform="translate(212,98)"/>
<path d="M0 0 C0.99 1.32 1.98 2.64 3 4 C3.804375 4.7115625 3.804375 4.7115625 4.625 5.4375 C6 7 6 7 6.421875 9.3046875 C7.22075427 13.02919219 9.07668382 15.78626208 11.0390625 19.01171875 C11.35617187 19.66785156 11.67328125 20.32398437 12 21 C11.67 21.66 11.34 22.32 11 23 C10.01 22.67 9.02 22.34 8 22 C8 24.64 8 27.28 8 30 C5.36 30 2.72 30 0 30 C0 20.1 0 10.2 0 0 Z " fill="#010201" transform="translate(0,82)"/>
<path d="M0 0 C0.33 0.99 0.66 1.98 1 3 C3.64 3 6.28 3 9 3 C9.9765625 9.0546875 9.9765625 9.0546875 10 11 C8 13 8 13 5.375 13.125 C4.59125 13.08375 3.8075 13.0425 3 13 C3 12.34 3 11.68 3 11 C1.68 11 0.36 11 -1 11 C-1.0270043 9.54176788 -1.04639787 8.08339325 -1.0625 6.625 C-1.07410156 5.81289062 -1.08570313 5.00078125 -1.09765625 4.1640625 C-1 2 -1 2 0 0 Z M0 3 C1 6 1 6 1 6 Z " fill="#25B8DD" transform="translate(231,109)"/>
<path d="M0 0 C2 3 2 3 3 5 C5.11327425 5.90725434 5.11327425 5.90725434 7.5625 6.625 C8.38878906 6.88539063 9.21507812 7.14578125 10.06640625 7.4140625 C10.70449219 7.60742188 11.34257812 7.80078125 12 8 C12 8.33 12 8.66 12 9 C3.75 9 -4.5 9 -13 9 C-9 7 -9 7 -6.375 6.0625 C-3.69200398 5.11541176 -3.69200398 5.11541176 -2 2 C-1.34 2.33 -0.68 2.66 0 3 C0 2.01 0 1.02 0 0 Z " fill="#000708" transform="translate(162,129)"/>
<path d="M0 0 C0.721875 0.763125 1.44375 1.52625 2.1875 2.3125 C4.71078251 4.72363662 6.99102642 6.29220419 10 8 C10.66 8.66 11.32 9.32 12 10 C5.4 10 -1.2 10 -8 10 C-8 9.34 -8 8.68 -8 8 C-7.236875 7.79375 -6.47375 7.5875 -5.6875 7.375 C-2.17770897 5.57929296 -1.47400219 3.56863688 0 0 Z M-1 6 C-0.67 6.66 -0.34 7.32 0 8 C0.66 7.67 1.32 7.34 2 7 C1.01 6.67 0.02 6.34 -1 6 Z " fill="#010406" transform="translate(186,128)"/>
<path d="M0 0 C0.66 0 1.32 0 2 0 C2.33 4.62 2.66 9.24 3 14 C3.66 13.67 4.32 13.34 5 13 C4.67 13.99 4.34 14.98 4 16 C3.34 16 2.68 16 2 16 C1.34 18.31 0.68 20.62 0 23 C-0.33 23 -0.66 23 -1 23 C-1.02911321 19.9166866 -1.04683682 16.83340875 -1.0625 13.75 C-1.07087891 12.87730469 -1.07925781 12.00460938 -1.08789062 11.10546875 C-1.09111328 10.26113281 -1.09433594 9.41679688 -1.09765625 8.546875 C-1.10551147 7.38430176 -1.10551147 7.38430176 -1.11352539 6.19824219 C-1.00036998 4.00716402 -0.60552448 2.10362139 0 0 Z " fill="#010305" transform="translate(165,102)"/>
<path d="M0 0 C2.4375 0.1875 2.4375 0.1875 3.4375 1.1875 C3.47842937 3.52047433 3.47991723 5.85455225 3.4375 8.1875 C1.10455225 8.22991723 -1.22952567 8.22842937 -3.5625 8.1875 C-4.5625 7.1875 -4.5625 7.1875 -4.75 4.75 C-4.48737296 1.16076381 -3.58923619 0.26262704 0 0 Z " fill="#000000" transform="translate(22.5625,33.8125)"/>
<path d="M0 0 C0.33 0 0.66 0 1 0 C1 2.31 1 4.62 1 7 C1.66 7 2.32 7 3 7 C3.3403125 8.3303125 3.3403125 8.3303125 3.6875 9.6875 C5.17188513 13.43380532 7.02403485 15.33729434 10 18 C9.01 18.33 8.02 18.66 7 19 C2.69655011 16.52551631 0.95537622 13.66007277 -0.57421875 9.10546875 C-1.23968378 5.81477472 -0.74598004 3.25518563 0 0 Z " fill="#37CEBC" transform="translate(117,116)"/>
<path d="M0 0 C0 1.65 0 3.3 0 5 C-3.27075883 5.0580476 -6.54138524 5.09361165 -9.8125 5.125 C-10.74126953 5.14175781 -11.67003906 5.15851563 -12.62695312 5.17578125 C-13.51962891 5.18222656 -14.41230469 5.18867188 -15.33203125 5.1953125 C-16.15421143 5.20578613 -16.9763916 5.21625977 -17.82348633 5.22705078 C-20 5 -20 5 -23 3 C-18.05 3 -13.1 3 -8 3 C-7.67 2.34 -7.34 1.68 -7 1 C-2.2 0 -2.2 0 0 0 Z " fill="#217AAE" transform="translate(256,133)"/>
<path d="M0 0 C1.32 1.32 2.64 2.64 4 4 C-2.93 4 -9.86 4 -17 4 C-13.08144087 2.04072043 -11.07084577 1.68127863 -6.8125 1.4375 C-3.08992543 1.53210522 -3.08992543 1.53210522 0 0 Z " fill="#010400" transform="translate(65,134)"/>
<path d="M0 0 C-2.76223278 2.76223278 -5.20706617 2.57856291 -9 3 C-9 4.65 -9 6.3 -9 8 C-9.5775 7.773125 -10.155 7.54625 -10.75 7.3125 C-13.12172477 6.73494807 -13.12172477 6.73494807 -15.25 8.4375 C-16.11625 9.2109375 -16.11625 9.2109375 -17 10 C-15.01007784 4.9347436 -11.16471605 2.41527491 -6.375 0.1875 C-3 -1 -3 -1 0 0 Z " fill="#36C4E4" transform="translate(231,88)"/>
<path d="M0 0 C1.98 0 3.96 0 6 0 C6 2.64 6 5.28 6 8 C1.125 6.125 1.125 6.125 0 5 C-0.04063832 3.33382885 -0.042721 1.66611905 0 0 Z " fill="#010207" transform="translate(232,112)"/>
<path d="M0 0 C0.66 0.33 1.32 0.66 2 1 C1.56826496 7.15222436 0.34594658 10.81917949 -3 16 C-3.99 15.67 -4.98 15.34 -6 15 C-5.65066406 14.41992188 -5.30132812 13.83984375 -4.94140625 13.2421875 C-2.36970109 8.82730556 -0.40004495 5.20058437 0 0 Z " fill="#07110C" transform="translate(103,33)"/>
<path d="M0 0 C3.18642907 3.18642907 3.70270655 6.3490048 4.08203125 10.671875 C3.95345637 14.32095268 2.70327067 16.79785114 1 20 C0.34 20 -0.32 20 -1 20 C-0.67 19.175 -0.34 18.35 0 17.5 C1.34625764 12.78809824 2.00563805 8.24789682 -0.0625 3.625 C-0.371875 3.08875 -0.68125 2.5525 -1 2 C-0.67 1.34 -0.34 0.68 0 0 Z " fill="#3BC9C6" transform="translate(149,2)"/>
<path d="M0 0 C2.5 1.3125 2.5 1.3125 5 3 C5 3.99 5 4.98 5 6 C5.99 6 6.98 6 8 6 C8 6.66 8 7.32 8 8 C4.7 8 1.4 8 -2 8 C-2 7.34 -2 6.68 -2 6 C-0.68 5.34 0.64 4.68 2 4 C1.34 2.68 0.68 1.36 0 0 Z " fill="#1C8057" transform="translate(26,130)"/>
<path d="M0 0 C2.31 0.33 4.62 0.66 7 1 C7.66 2.98 8.32 4.96 9 7 C8.01 7.495 8.01 7.495 7 8 C6.01 7.34 5.02 6.68 4 6 C4 5.34 4 4.68 4 4 C3.34 4 2.68 4 2 4 C2 3.34 2 2.68 2 2 C1.34 2 0.68 2 0 2 C0 1.34 0 0.68 0 0 Z " fill="#13D386" transform="translate(14,56)"/>
<path d="M0 0 C0.33 0 0.66 0 1 0 C1.36294314 2.1026706 1.71506972 4.20721057 2.0625 6.3125 C2.25972656 7.48425781 2.45695312 8.65601563 2.66015625 9.86328125 C3 13 3 13 2 16 C1.34 15.67 0.68 15.34 0 15 C-1.19156496 9.69211971 -0.83536335 5.29063457 0 0 Z " fill="#000500" transform="translate(24,47)"/>
<path d="M0 0 C8.57142857 3 8.57142857 3 12 6 C11.67 6.66 11.34 7.32 11 8 C9.989375 7.360625 8.97875 6.72125 7.9375 6.0625 C4.24780076 3.93151044 1.22139745 3.34460387 -3 3 C-2.01 2.01 -1.02 1.02 0 0 Z " fill="#36C3BD" transform="translate(147,87)"/>
<path d="M0 0 C0.99 0.33 1.98 0.66 3 1 C1.68 3.64 0.36 6.28 -1 9 C-1.66 9 -2.32 9 -3 9 C-3.33 9.66 -3.66 10.32 -4 11 C-4.56638908 6.18569279 -2.82561627 3.79692186 0 0 Z " fill="#2CC8BD" transform="translate(146,22)"/>
<path d="M0 0 C0.99 0.33 1.98 0.66 3 1 C3 2.32 3 3.64 3 5 C2.34 5.66 1.68 6.32 1 7 C1 7.66 1 8.32 1 9 C0.01 9.33 -0.98 9.66 -2 10 C-2.17942163 6.05272412 -2.09350689 3.4019487 0 0 Z " fill="#36BEAF" transform="translate(121,91)"/>
<path d="M0 0 C-0.875 4.75 -0.875 4.75 -2 7 C-2.66 7 -3.32 7 -4 7 C-6.29648649 4.4385343 -7 3.52032428 -7 0 C-3.98968256 -0.93423645 -3.13349732 -1.04449911 0 0 Z M-3 2 C-3.33 2.66 -3.66 3.32 -4 4 C-3.34 4 -2.68 4 -2 4 C-2.33 3.34 -2.66 2.68 -3 2 Z " fill="#1AD2AD" transform="translate(119,78)"/>
<path d="M0 0 C0.33 0.66 0.66 1.32 1 2 C0.22265625 3.9453125 0.22265625 3.9453125 -0.9375 6.125 C-1.31777344 6.84945312 -1.69804688 7.57390625 -2.08984375 8.3203125 C-2.39019531 8.87460938 -2.69054687 9.42890625 -3 10 C-3.66 9.67 -4.32 9.34 -5 9 C-5 6.69 -5 4.38 -5 2 C-3.35 1.34 -1.7 0.68 0 0 Z " fill="#2FC5B8" transform="translate(127,62)"/>
<path d="M0 0 C2.30104014 2.12251117 3.81894459 4.15548556 5.25 6.9375 C5.78367187 7.94103516 5.78367187 7.94103516 6.328125 8.96484375 C7.12634 11.38269269 6.82707306 12.63011757 6 15 C2.68502992 12.40567559 2.55615622 10.05199532 2 6 C1.36694179 3.98910922 0.70905938 1.98536627 0 0 Z " fill="#051606" transform="translate(34,75)"/>
<path d="M0 0 C1.32 0 2.64 0 4 0 C3.67 1.65 3.34 3.3 3 5 C1.68 5 0.36 5 -1 5 C-1.33 5.99 -1.66 6.98 -2 8 C-1.125 1.125 -1.125 1.125 0 0 Z " fill="#20724E" transform="translate(28,43)"/>
<path d="M0 0 C0.66 0 1.32 0 2 0 C2 0.66 2 1.32 2 2 C3.65 2 5.3 2 7 2 C6.67 2.99 6.34 3.98 6 5 C3.03 4.67 0.06 4.34 -3 4 C-3 3.34 -3 2.68 -3 2 C-2.01 2 -1.02 2 0 2 C0 1.34 0 0.68 0 0 Z " fill="#1C704E" transform="translate(33,38)"/>
<path d="M0 0 C0.66 0 1.32 0 2 0 C2.9765625 6.0546875 2.9765625 6.0546875 3 8 C2.34 8.66 1.68 9.32 1 10 C-0.32 10 -1.64 10 -3 10 C-3 9.34 -3 8.68 -3 8 C-2.01 8 -1.02 8 0 8 C0 5.36 0 2.72 0 0 Z " fill="#2DB8F4" transform="translate(238,112)"/>
<path d="M0 0 C0 1.65 0 3.3 0 5 C-2.31 5 -4.62 5 -7 5 C-3.61290323 0 -3.61290323 0 0 0 Z " fill="#00030D" transform="translate(256,133)"/>
<path d="M0 0 C3 4 3 4 2.6875 7.75 C2.460625 8.8225 2.23375 9.895 2 11 C1.34 10.67 0.68 10.34 0 10 C0 6.7 0 3.4 0 0 Z " fill="#3EC0D1" transform="translate(208,122)"/>
<path d="M0 0 C2.475 0.99 2.475 0.99 5 2 C4.67 3.32 4.34 4.64 4 6 C2.66666667 6 1.33333333 6 0 6 C0 4.02 0 2.04 0 0 Z " fill="#020608" transform="translate(168,108)"/>
<path d="M0 0 C0.33 0 0.66 0 1 0 C1 2.31 1 4.62 1 7 C1.66 7 2.32 7 3 7 C3 8.32 3 9.64 3 11 C2.34 11 1.68 11 1 11 C-0.98362069 8.08291076 -0.9876191 6.87619096 -0.625 3.25 C-0.41875 2.1775 -0.2125 1.105 0 0 Z " fill="#4AD0C1" transform="translate(117,116)"/>
<path d="M0 0 C1.32 0 2.64 0 4 0 C4 0.66 4 1.32 4 2 C3.34 2 2.68 2 2 2 C2 2.66 2 3.32 2 4 C2.66 4 3.32 4 4 4 C4 5.32 4 6.64 4 8 C3.01 7.67 2.02 7.34 1 7 C0.67 4.69 0.34 2.38 0 0 Z " fill="#09C6C2" transform="translate(186,120)"/>
<path d="M0 0 C2.88437779 1.29299694 4.87219421 2.65941363 7 5 C6.34 6.32 5.68 7.64 5 9 C4.731875 8.401875 4.46375 7.80375 4.1875 7.1875 C3.1106021 4.95672092 3.1106021 4.95672092 1.375 3.375 C0.92125 2.92125 0.4675 2.4675 0 2 C0 1.34 0 0.68 0 0 Z " fill="#2FAC76" transform="translate(32,71)"/>
<path d="M0 0 C2.64 0.33 5.28 0.66 8 1 C6.25 3.0625 6.25 3.0625 4 5 C1.75 4.75 1.75 4.75 0 4 C0 2.68 0 1.36 0 0 Z M2 2 C2.33 2.66 2.66 3.32 3 4 C3.33 3.34 3.66 2.68 4 2 C3.34 2 2.68 2 2 2 Z " fill="#146F55" transform="translate(71,23)"/>
<path d="M0 0 C-0.8125 1.9375 -0.8125 1.9375 -2 4 C-2.99 4.33 -3.98 4.66 -5 5 C-5.33 5.66 -5.66 6.32 -6 7 C-6 5.35 -6 3.7 -6 2 C-2.25 0 -2.25 0 0 0 Z " fill="#33C7D9" transform="translate(206,106)"/>
<path d="M0 0 C0.66 0 1.32 0 2 0 C1.25 5.75 1.25 5.75 -1 8 C-1.66 6.35 -2.32 4.7 -3 3 C-2.01 3 -1.02 3 0 3 C0 2.01 0 1.02 0 0 Z " fill="#021005" transform="translate(79,82)"/>
<path d="M0 0 C2.29633824 3.44450737 2.54016485 5.93812283 3 10 C0.51280729 7.08025204 -0.58572305 4.83206182 -1 1 C-0.67 0.67 -0.34 0.34 0 0 Z " fill="#2A855B" transform="translate(29,61)"/>
<path d="M0 0 C0.66 0 1.32 0 2 0 C0.90931332 3.77545388 0.0916909 6.47043472 -3 9 C-3 5.30581799 -1.71820705 3.22163822 0 0 Z " fill="#30D4AE" transform="translate(100,112)"/>
<path d="M0 0 C2.17756053 4.35512106 2.1816487 5.47034665 1 10 C0.34 10.66 -0.32 11.32 -1 12 C-0.67 8.04 -0.34 4.08 0 0 Z " fill="#46C9E4" transform="translate(209,92)"/>
<path d="M0 0 C0.99 0 1.98 0 3 0 C2.74438677 2.3431213 2.40729228 4.67843403 2 7 C1.01 7.495 1.01 7.495 0 8 C0 5.36 0 2.72 0 0 Z " fill="#28BC96" transform="translate(90,52)"/>
<path d="M0 0 C0.33 0.66 0.66 1.32 1 2 C3.02463255 2.65213292 3.02463255 2.65213292 5 3 C5 3.66 5 4.32 5 5 C4.01 5.33 3.02 5.66 2 6 C1.01 5.01 0.02 4.02 -1 3 C-0.67 2.01 -0.34 1.02 0 0 Z " fill="#2AC2DB" transform="translate(221,130)"/>
<path d="M0 0 C0.33 0.99 0.66 1.98 1 3 C0.01 3.495 0.01 3.495 -1 4 C-0.67 2.68 -0.34 1.36 0 0 Z " fill="#21C3AE" transform="translate(92,64)"/>
<path d="M0 0 C0.66 0.66 1.32 1.32 2 2 C1.34 2 0.68 2 0 2 C0 1.34 0 0.68 0 0 Z " fill="#2A6139" transform="translate(22,124)"/>
<path d="" fill="#508C73" transform="translate(0,0)"/>
<path d="" fill="#7EDADD" transform="translate(0,0)"/>
<path d="" fill="#30D789" transform="translate(0,0)"/>
<path d="" fill="#4F6F5C" transform="translate(0,0)"/>
<path d="" fill="#000002" transform="translate(0,0)"/>
<path d="M0 0 C2 1 2 1 2 1 Z " fill="#000A00" transform="translate(55,45)"/>
<path d="" fill="#0C0007" transform="translate(0,0)"/>
<path d="" fill="#001001" transform="translate(0,0)"/>
<path d="" fill="#0CB6EA" transform="translate(0,0)"/>
<path d="" fill="#2DD0F3" transform="translate(0,0)"/>
<path d="" fill="#1CBFE2" transform="translate(0,0)"/>
<path d="" fill="#000106" transform="translate(0,0)"/>
<path d="" fill="#25BCD1" transform="translate(0,0)"/>
<path d="" fill="#0AC0CD" transform="translate(0,0)"/>
<path d="" fill="#003300" transform="translate(0,0)"/>
<path d="" fill="#00120E" transform="translate(0,0)"/>
<path d="" fill="#11B8CB" transform="translate(0,0)"/>
<path d="" fill="#18D98A" transform="translate(0,0)"/>
<path d="" fill="#23B8E3" transform="translate(0,0)"/>
<path d="" fill="#03CD9B" transform="translate(0,0)"/>
<path d="" fill="#002A07" transform="translate(0,0)"/>
<path d="" fill="#001400" transform="translate(0,0)"/>
<path d="" fill="#001100" transform="translate(0,0)"/>
<path d="" fill="#001100" transform="translate(0,0)"/>
<path d="" fill="#11C989" transform="translate(0,0)"/>
<path d="" fill="#97BEBB" transform="translate(0,0)"/>
<path d="" fill="#070001" transform="translate(0,0)"/>
<path d="" fill="#002824" transform="translate(0,0)"/>
<path d="" fill="#12C0B6" transform="translate(0,0)"/>
</svg>
